<mxfile host="app.diagrams.net" agent="Mozilla/5.0 (Windows NT 10.0; Win64; x64) AppleWebKit/537.36 (KHTML, like Gecko) Chrome/129.0.0.0 Safari/537.36 Edg/129.0.0.0" version="24.7.14">
  <diagram name="第 1 页" id="uK8bfjEyXZ9EMQQRZ7RQ">
    <mxGraphModel dx="2234" dy="827" grid="0" gridSize="10" guides="1" tooltips="1" connect="1" arrows="1" fold="1" page="0" pageScale="1" pageWidth="827" pageHeight="1169" math="0" shadow="0">
      <root>
        <mxCell id="0" />
        <mxCell id="1" parent="0" />
        <mxCell id="2p_H_T_IgExstXiVnzf6-5" style="edgeStyle=none;curved=1;rounded=0;orthogonalLoop=1;jettySize=auto;html=1;entryX=0;entryY=0.5;entryDx=0;entryDy=0;fontSize=24;startSize=8;endSize=8;exitX=1;exitY=0.706;exitDx=0;exitDy=0;exitPerimeter=0;strokeWidth=4;sourcePerimeterSpacing=0;fontColor=#FFFFFF;endArrow=classicThin;endFill=0;" edge="1" parent="1" source="2p_H_T_IgExstXiVnzf6-17" target="2p_H_T_IgExstXiVnzf6-4">
          <mxGeometry relative="1" as="geometry">
            <mxPoint x="-329" y="206.0857142857144" as="sourcePoint" />
          </mxGeometry>
        </mxCell>
        <mxCell id="2p_H_T_IgExstXiVnzf6-6" style="edgeStyle=none;curved=1;rounded=0;orthogonalLoop=1;jettySize=auto;html=1;entryX=0;entryY=0.5;entryDx=0;entryDy=0;fontSize=24;startSize=8;endSize=8;exitX=1;exitY=0.5;exitDx=0;exitDy=0;strokeWidth=4;sourcePerimeterSpacing=0;fontColor=#FFFFFF;endArrow=classicThin;endFill=0;" edge="1" parent="1" source="2p_H_T_IgExstXiVnzf6-17" target="2p_H_T_IgExstXiVnzf6-3">
          <mxGeometry relative="1" as="geometry">
            <mxPoint x="-329" y="147.57142857142867" as="sourcePoint" />
          </mxGeometry>
        </mxCell>
        <mxCell id="2p_H_T_IgExstXiVnzf6-7" style="edgeStyle=none;curved=1;rounded=0;orthogonalLoop=1;jettySize=auto;html=1;entryX=0;entryY=0.5;entryDx=0;entryDy=0;fontSize=24;startSize=8;endSize=8;exitX=1;exitY=0.25;exitDx=0;exitDy=0;strokeWidth=4;sourcePerimeterSpacing=0;fontColor=#FFFFFF;endArrow=classicThin;endFill=0;" edge="1" parent="1" source="2p_H_T_IgExstXiVnzf6-17" target="2p_H_T_IgExstXiVnzf6-2">
          <mxGeometry relative="1" as="geometry">
            <mxPoint x="-329" y="90.92899408284029" as="sourcePoint" />
          </mxGeometry>
        </mxCell>
        <mxCell id="2p_H_T_IgExstXiVnzf6-9" style="edgeStyle=none;curved=1;rounded=0;orthogonalLoop=1;jettySize=auto;html=1;entryX=0;entryY=0.5;entryDx=0;entryDy=0;fontSize=24;startSize=8;endSize=8;exitX=1;exitY=1;exitDx=0;exitDy=0;strokeWidth=4;sourcePerimeterSpacing=0;fontColor=#FFFFFF;endArrow=classicThin;endFill=0;" edge="1" parent="1" source="2p_H_T_IgExstXiVnzf6-2" target="2p_H_T_IgExstXiVnzf6-8">
          <mxGeometry relative="1" as="geometry" />
        </mxCell>
        <mxCell id="2p_H_T_IgExstXiVnzf6-15" style="edgeStyle=none;curved=1;rounded=0;orthogonalLoop=1;jettySize=auto;html=1;fontSize=24;startSize=8;endSize=8;entryX=0;entryY=0;entryDx=0;entryDy=0;strokeWidth=4;sourcePerimeterSpacing=0;fontColor=#FFFFFF;endArrow=classicThin;endFill=0;" edge="1" parent="1" source="2p_H_T_IgExstXiVnzf6-2" target="2p_H_T_IgExstXiVnzf6-14">
          <mxGeometry relative="1" as="geometry">
            <mxPoint x="412" y="63" as="targetPoint" />
          </mxGeometry>
        </mxCell>
        <mxCell id="2p_H_T_IgExstXiVnzf6-2" value="GLEW" style="rounded=1;whiteSpace=wrap;html=1;fontSize=24;strokeWidth=1;fillColor=#014c80;fontColor=#FFFFFF;strokeColor=none;shadow=1;shadowOpacity=30;shadowOffsetX=7;shadowOffsetY=7;shadowBlur=5;" vertex="1" parent="1">
          <mxGeometry x="-259" y="34" width="120" height="50" as="geometry" />
        </mxCell>
        <mxCell id="2p_H_T_IgExstXiVnzf6-10" style="edgeStyle=none;curved=1;rounded=0;orthogonalLoop=1;jettySize=auto;html=1;entryX=0;entryY=0.5;entryDx=0;entryDy=0;fontSize=24;startSize=8;endSize=8;strokeWidth=4;sourcePerimeterSpacing=0;fontColor=#FFFFFF;endArrow=classicThin;endFill=0;" edge="1" parent="1" source="2p_H_T_IgExstXiVnzf6-3" target="2p_H_T_IgExstXiVnzf6-8">
          <mxGeometry relative="1" as="geometry" />
        </mxCell>
        <mxCell id="2p_H_T_IgExstXiVnzf6-3" value="GL" style="rounded=1;whiteSpace=wrap;html=1;fontSize=24;strokeWidth=1;fillColor=#c5141c;fontColor=#FFFFFF;strokeColor=none;shadow=1;shadowOpacity=30;shadowOffsetX=7;shadowOffsetY=7;shadowBlur=5;" vertex="1" parent="1">
          <mxGeometry x="-259" y="119" width="120" height="50" as="geometry" />
        </mxCell>
        <mxCell id="2p_H_T_IgExstXiVnzf6-11" style="edgeStyle=none;curved=1;rounded=0;orthogonalLoop=1;jettySize=auto;html=1;entryX=0;entryY=0.5;entryDx=0;entryDy=0;fontSize=24;startSize=8;endSize=8;exitX=1;exitY=0;exitDx=0;exitDy=0;strokeWidth=4;sourcePerimeterSpacing=0;fontColor=#FFFFFF;endArrow=classicThin;endFill=0;" edge="1" parent="1" source="2p_H_T_IgExstXiVnzf6-4" target="2p_H_T_IgExstXiVnzf6-8">
          <mxGeometry relative="1" as="geometry" />
        </mxCell>
        <mxCell id="2p_H_T_IgExstXiVnzf6-4" value="GLUT" style="rounded=1;whiteSpace=wrap;html=1;fontSize=24;strokeWidth=1;fillColor=#0072ba;fontColor=#FFFFFF;strokeColor=none;shadow=1;shadowOpacity=30;shadowOffsetX=7;shadowOffsetY=7;shadowBlur=5;" vertex="1" parent="1">
          <mxGeometry x="-259" y="204" width="120" height="50" as="geometry" />
        </mxCell>
        <mxCell id="2p_H_T_IgExstXiVnzf6-13" style="edgeStyle=none;curved=1;rounded=0;orthogonalLoop=1;jettySize=auto;html=1;fontSize=24;startSize=8;endSize=8;strokeWidth=4;sourcePerimeterSpacing=0;fontColor=#FFFFFF;endArrow=classicThin;endFill=0;" edge="1" parent="1" source="2p_H_T_IgExstXiVnzf6-8" target="2p_H_T_IgExstXiVnzf6-12">
          <mxGeometry relative="1" as="geometry" />
        </mxCell>
        <mxCell id="2p_H_T_IgExstXiVnzf6-8" value="GLX" style="rounded=1;whiteSpace=wrap;html=1;fontSize=24;strokeWidth=1;fillColor=#229053;fontColor=#FFFFFF;strokeColor=none;shadow=1;shadowOpacity=30;shadowOffsetX=7;shadowOffsetY=7;shadowBlur=5;" vertex="1" parent="1">
          <mxGeometry x="-50" y="119" width="120" height="50" as="geometry" />
        </mxCell>
        <mxCell id="2p_H_T_IgExstXiVnzf6-12" value="Xlib, Xt" style="rounded=1;whiteSpace=wrap;html=1;fontSize=24;strokeWidth=1;fillColor=#b9006e;fontColor=#FFFFFF;strokeColor=none;shadow=1;shadowOpacity=30;shadowOffsetX=7;shadowOffsetY=7;shadowBlur=5;" vertex="1" parent="1">
          <mxGeometry x="158" y="119" width="120" height="50" as="geometry" />
        </mxCell>
        <mxCell id="2p_H_T_IgExstXiVnzf6-14" value="Graphics Driver" style="rounded=1;whiteSpace=wrap;html=1;fontSize=24;strokeWidth=1;fillColor=#4b4a45;fontColor=#FFFFFF;strokeColor=none;shadow=1;shadowOpacity=30;shadowOffsetX=7;shadowOffsetY=7;shadowBlur=5;" vertex="1" parent="1">
          <mxGeometry x="366" y="59" width="120" height="170" as="geometry" />
        </mxCell>
        <mxCell id="2p_H_T_IgExstXiVnzf6-16" style="edgeStyle=none;curved=1;rounded=0;orthogonalLoop=1;jettySize=auto;html=1;entryX=0;entryY=0.5;entryDx=0;entryDy=0;fontSize=24;startSize=8;endSize=8;strokeWidth=4;sourcePerimeterSpacing=0;fontColor=#FFFFFF;endArrow=classicThin;endFill=0;" edge="1" parent="1" source="2p_H_T_IgExstXiVnzf6-12" target="2p_H_T_IgExstXiVnzf6-14">
          <mxGeometry relative="1" as="geometry" />
        </mxCell>
        <mxCell id="2p_H_T_IgExstXiVnzf6-17" value="OpenGL&lt;div style=&quot;font-size: 24px;&quot;&gt;application&lt;/div&gt;&lt;div style=&quot;font-size: 24px;&quot;&gt;program&lt;/div&gt;" style="rounded=1;whiteSpace=wrap;html=1;fontSize=24;strokeWidth=1;fillColor=#5a57a6;strokeColor=none;fontColor=#FFFFFF;shadow=1;shadowOpacity=30;shadowOffsetX=10;shadowOffsetY=10;shadowBlur=2;shadowColor=#8F8BC0;linecap=round;" vertex="1" parent="1">
          <mxGeometry x="-467" y="59" width="120" height="170" as="geometry" />
        </mxCell>
      </root>
    </mxGraphModel>
  </diagram>
</mxfile>
